<svg width="125" height="125" viewBox="0 0 125 125" fill="none" xmlns="http://www.w3.org/2000/svg">
<circle cx="62.5" cy="62.5" r="62.5" fill="#77B8A0"/>
<path d="M62.0835 102.604C84.7865 102.604 103.646 85.0806 103.646 62.917C103.646 40.7534 84.7865 23.2295 62.0835 23.2295C39.3804 23.2295 20.521 40.7534 20.521 62.917C20.521 85.0806 39.3804 102.604 62.0835 102.604Z" stroke="white" stroke-width="10" stroke-linecap="round"/>
<path d="M44.8365 78.3428C46.9737 80.0988 49.7351 81.3284 52.6378 82.1234C55.5841 82.9303 58.8348 83.3337 62.0835 83.3337C65.3322 83.3337 68.5829 82.9303 71.5292 82.1234C74.4319 81.3284 77.1933 80.0988 79.3305 78.3428" stroke="white" stroke-width="10" stroke-linecap="round"/>
<path d="M49.896 59.3128C52.2652 59.3128 54.2085 57.4876 54.2085 55.2087C54.2085 52.9298 52.2652 51.1045 49.896 51.1045C47.5268 51.1045 45.5835 52.9298 45.5835 55.2087C45.5835 57.4876 47.5268 59.3128 49.896 59.3128Z" fill="white" stroke="white" stroke-width="0.5" stroke-linecap="round"/>
<path d="M74.271 59.3128C76.6402 59.3128 78.5835 57.4876 78.5835 55.2087C78.5835 52.9298 76.6402 51.1045 74.271 51.1045C71.9018 51.1045 69.9585 52.9298 69.9585 55.2087C69.9585 57.4876 71.9018 59.3128 74.271 59.3128Z" fill="white" stroke="white" stroke-width="0.5" stroke-linecap="round"/>
</svg>
