<svg width="55" height="55" viewBox="0 0 55 55" fill="none" xmlns="http://www.w3.org/2000/svg">
<path d="M27.5001 0C20.0315 0 19.095 0.0316841 16.1618 0.165461C13.2347 0.298993 11.2357 0.763939 9.4864 1.44363C7.67803 2.14641 6.14442 3.08678 4.61564 4.61556C3.08678 6.14434 2.14641 7.67811 1.44371 9.48648C0.763857 11.2357 0.299075 13.2347 0.16538 16.1618C0.0316022 19.095 0 20.0315 0 27.5001C0 34.9685 0.0316022 35.905 0.16538 38.8382C0.299075 41.7653 0.763857 43.7643 1.44371 45.5135C2.1465 47.3219 3.08687 48.8555 4.61564 50.3844C6.14451 51.9132 7.67803 52.8536 9.4864 53.5564C11.2357 54.2361 13.2347 54.7009 16.1618 54.8345C19.095 54.9683 20.0315 55 27.5001 55C34.9685 55 35.905 54.9683 38.8382 54.8345C41.7653 54.701 43.7643 54.2361 45.5135 53.5564C47.3219 52.8536 48.8555 51.9132 50.3844 50.3844C51.9132 48.8555 52.8536 47.3219 53.5564 45.5135C54.2361 43.7643 54.701 41.7653 54.8345 38.8382C54.9683 35.905 55 34.9685 55 27.5001C55 20.0315 54.9683 19.095 54.8345 16.1618C54.701 13.2347 54.2361 11.2357 53.5564 9.48648C52.8536 7.67811 51.9132 6.14434 50.3844 4.61556C48.8555 3.08678 47.3219 2.14641 45.5135 1.44363C43.7643 0.763939 41.7653 0.298993 38.8382 0.165461C35.905 0.0316841 34.9685 0 27.5001 0ZM27.5001 4.95492C34.8428 4.95492 35.7126 4.983 38.6124 5.1153C41.2936 5.23754 42.7497 5.68554 43.7187 6.06214C45.0024 6.56106 45.9184 7.15692 46.8807 8.11924C47.8431 9.08155 48.4389 9.99768 48.9379 11.2813C49.3145 12.2503 49.7625 13.7064 49.8847 16.3876C50.017 19.2874 50.0451 20.1572 50.0451 27.5C50.0451 34.8428 50.017 35.7126 49.8847 38.6124C49.7625 41.2936 49.3145 42.7497 48.9379 43.7187C48.4389 45.0024 47.8431 45.9184 46.8807 46.8807C45.9184 47.8431 45.0023 48.4389 43.7187 48.9379C42.7497 49.3145 41.2936 49.7625 38.6124 49.8847C35.7131 50.017 34.8433 50.0451 27.5 50.0451C20.1567 50.0451 19.2871 50.017 16.3876 49.8846C13.7064 49.7625 12.2503 49.3145 11.2813 48.9379C9.9976 48.4389 9.08155 47.8431 8.11932 46.8807C7.157 45.9184 6.56106 45.0023 6.06214 43.7187C5.68554 42.7497 5.23762 41.2936 5.1153 38.6124C4.983 35.7126 4.95492 34.8428 4.95492 27.5C4.95492 20.1572 4.983 19.2874 5.1153 16.3876C5.23762 13.7064 5.68554 12.2503 6.06214 11.2813C6.56106 9.9976 7.157 9.08155 8.11924 8.11932C9.08155 7.15692 9.99768 6.56106 11.2813 6.06214C12.2503 5.68554 13.7064 5.23754 16.3876 5.1153C19.2874 4.983 20.1572 4.95492 27.5 4.95492" fill="white"/>
<path d="M27.5001 36.6663C22.4374 36.6663 18.3333 32.5623 18.3333 27.4997C18.3333 22.437 22.4374 18.3329 27.5001 18.3329C32.5627 18.3329 36.6667 22.437 36.6667 27.4997C36.6667 32.5623 32.5627 36.6663 27.5001 36.6663ZM27.5001 13.378C19.7008 13.378 13.3784 19.7004 13.3784 27.4997C13.3784 35.2988 19.7008 41.6213 27.5001 41.6213C35.2992 41.6213 41.6216 35.2988 41.6216 27.4997C41.6216 19.7004 35.2992 13.378 27.5001 13.378ZM45.4796 12.8201C45.4796 14.6427 44.0021 16.1201 42.1796 16.1201C40.3571 16.1201 38.8796 14.6427 38.8796 12.8201C38.8796 10.9975 40.3571 9.52002 42.1796 9.52002C44.0021 9.52002 45.4796 10.9975 45.4796 12.8201Z" fill="white"/>
</svg>
