<svg width="125" height="125" viewBox="0 0 125 125" fill="none" xmlns="http://www.w3.org/2000/svg">
<circle cx="62.5" cy="62.5" r="62.5" fill="#77B8A0"/>
<path d="M25.3468 82.6385H73.2984C73.9473 82.6385 74.3262 81.9066 73.9517 81.3767L49.9759 47.4518C49.6571 47.0007 48.988 47.0007 48.6693 47.4518L24.6935 81.3767C24.319 81.9066 24.6979 82.6385 25.3468 82.6385Z" stroke="white" stroke-width="5" stroke-linecap="round"/>
<path d="M56.6143 82.6386H91.6218C92.2517 82.6386 92.6345 81.9444 92.2984 81.4117L75.52 54.822C75.2061 54.3245 74.4807 54.3245 74.1669 54.8219L65.3897 68.7316" stroke="white" stroke-width="5" stroke-linecap="round"/>
<path d="M88.7497 35.694C88.7497 39.2767 85.8108 42.2218 82.1351 42.2218C78.4593 42.2218 75.5205 39.2767 75.5205 35.694C75.5205 32.1113 78.4593 29.1663 82.1351 29.1663C85.8108 29.1663 88.7497 32.1113 88.7497 35.694Z" stroke="white" stroke-width="5" stroke-linecap="round"/>
</svg>
